# Blender v2.79 (sub 0) OBJ File: ''
# www.blender.org
mtllib background.mtl
o Untitled_Untitled.001
v 4.692292 0.000000 -6.973618
v -5.245208 0.000000 7.526382
v -5.245208 0.000000 -6.973618
v 4.692292 0.000000 7.526382
v 4.692292 0.500000 7.526382
v -5.245208 0.500000 -6.973618
v -5.245208 0.500000 7.526382
v 4.692292 0.500000 -6.973618
vn 0.0000 -1.0000 0.0000
vn 0.0000 1.0000 0.0000
vn -1.0000 0.0000 0.0000
vn 0.0000 0.0000 -1.0000
vn 1.0000 0.0000 0.0000
vn 0.0000 0.0000 1.0000
usemtl None
s off
f 1//1 2//1 3//1
f 2//1 1//1 4//1
f 5//2 6//2 7//2
f 6//2 5//2 8//2
f 6//3 2//3 7//3
f 2//3 6//3 3//3
f 6//4 1//4 3//4
f 1//4 6//4 8//4
f 1//5 5//5 4//5
f 5//5 1//5 8//5
f 5//6 2//6 4//6
f 2//6 5//6 7//6
